<mxfile host="Electron" modified="2023-04-30T01:33:41.875Z" agent="Mozilla/5.0 (Macintosh; Intel Mac OS X 10_15_7) AppleWebKit/537.36 (KHTML, like Gecko) draw.io/21.2.1 Chrome/112.0.5615.87 Electron/24.1.2 Safari/537.36" etag="ZJ6oPqmvOFaZUDyzOo13" version="21.2.1" type="device">
  <diagram name="Run Targets" id="PRpYN_fRq90AP2FBMjZx">
    <mxGraphModel dx="1242" dy="854" grid="1" gridSize="10" guides="1" tooltips="1" connect="1" arrows="1" fold="1" page="1" pageScale="1" pageWidth="850" pageHeight="1100" math="0" shadow="0">
      <root>
        <mxCell id="0" />
        <mxCell id="1" parent="0" />
        <mxCell id="gkKM9q-YfPjZsNWayiZE-6" value="" style="rounded=1;whiteSpace=wrap;html=1;opacity=50;dashed=1;dashPattern=8 8;" parent="1" vertex="1">
          <mxGeometry x="200" y="50" width="170" height="290" as="geometry" />
        </mxCell>
        <mxCell id="gkKM9q-YfPjZsNWayiZE-1" value="DLV" style="shape=parallelogram;perimeter=parallelogramPerimeter;whiteSpace=wrap;html=1;fixedSize=1;fillColor=#9933CC;" parent="1" vertex="1">
          <mxGeometry x="225" y="89" width="120" height="60" as="geometry" />
        </mxCell>
        <mxCell id="gkKM9q-YfPjZsNWayiZE-2" value="&lt;div style=&quot;text-align: justify;&quot;&gt;&lt;ul&gt;&lt;li&gt;&lt;span style=&quot;background-color: initial;&quot;&gt;GoLand可以配置使用的镜像。&lt;/span&gt;&lt;br&gt;&lt;/li&gt;&lt;li&gt;container只是作为二进制的执行环境，因此不需要有golang的工具链。&lt;/li&gt;&lt;li&gt;容器的entrypoint就是dlv命令。那么，如果是redis镜像，redis服务还能启动吗？？？&lt;/li&gt;&lt;li&gt;以下内容通过Volumes挂在的形式，给容器使用：&lt;/li&gt;&lt;ul&gt;&lt;li&gt;DLV二进制。&lt;/li&gt;&lt;li&gt;源代码。&lt;/li&gt;&lt;li&gt;构建的目标二进制。&lt;/li&gt;&lt;/ul&gt;&lt;li&gt;报错：/tmp/118e2d1b-90e4-47b7-8e7b-2525185047ec/dlv --listen=0.0.0.0:53209 --headless=true --api-version=2 --check-go-version=false --only-same-user=false exec /tmp/0abcc8d1-ce02-40db-9a45-864091339b96 /___go_build_main_go -- qemu-x86_64: Could not open &#39;/lib64/ld-linux-x86-64.so.2&#39;: No such file or directory&lt;/li&gt;&lt;ul&gt;&lt;li&gt;报错原因是，goland映射了错误的dlv版本，导致执行失败。我们要看一下goland选择dlv的方法？？？？&lt;/li&gt;&lt;/ul&gt;&lt;/ul&gt;&lt;/div&gt;" style="text;html=1;strokeColor=none;fillColor=none;align=center;verticalAlign=middle;whiteSpace=wrap;rounded=0;" parent="1" vertex="1">
          <mxGeometry x="150" y="360" width="650" height="200" as="geometry" />
        </mxCell>
        <mxCell id="gkKM9q-YfPjZsNWayiZE-3" value="DemoExe" style="shape=parallelogram;perimeter=parallelogramPerimeter;whiteSpace=wrap;html=1;fixedSize=1;fillColor=#99CC00;" parent="1" vertex="1">
          <mxGeometry x="225" y="250" width="120" height="60" as="geometry" />
        </mxCell>
        <mxCell id="gkKM9q-YfPjZsNWayiZE-4" value="GoLand" style="shape=parallelogram;perimeter=parallelogramPerimeter;whiteSpace=wrap;html=1;fixedSize=1;fillColor=#9933CC;" parent="1" vertex="1">
          <mxGeometry x="480" y="89" width="120" height="60" as="geometry" />
        </mxCell>
        <mxCell id="gkKM9q-YfPjZsNWayiZE-5" value="DockerBackend" style="shape=parallelogram;perimeter=parallelogramPerimeter;whiteSpace=wrap;html=1;fixedSize=1;fillColor=#008a00;fontColor=#ffffff;strokeColor=#005700;" parent="1" vertex="1">
          <mxGeometry x="480" y="250" width="120" height="60" as="geometry" />
        </mxCell>
        <mxCell id="gkKM9q-YfPjZsNWayiZE-7" value="container" style="text;html=1;strokeColor=none;fillColor=none;align=center;verticalAlign=middle;whiteSpace=wrap;rounded=0;" parent="1" vertex="1">
          <mxGeometry x="255" y="50" width="60" height="30" as="geometry" />
        </mxCell>
        <mxCell id="gkKM9q-YfPjZsNWayiZE-9" value="" style="endArrow=classic;html=1;rounded=0;strokeWidth=2;exitX=0;exitY=0.5;exitDx=0;exitDy=0;entryX=1;entryY=0.5;entryDx=0;entryDy=0;" parent="1" source="gkKM9q-YfPjZsNWayiZE-4" target="gkKM9q-YfPjZsNWayiZE-1" edge="1">
          <mxGeometry width="50" height="50" relative="1" as="geometry">
            <mxPoint x="680" y="120" as="sourcePoint" />
            <mxPoint x="730" y="70" as="targetPoint" />
          </mxGeometry>
        </mxCell>
        <mxCell id="gkKM9q-YfPjZsNWayiZE-16" value="4 通过TCP端口连&lt;br&gt;接调试服务器" style="edgeLabel;html=1;align=center;verticalAlign=middle;resizable=0;points=[];" parent="gkKM9q-YfPjZsNWayiZE-9" vertex="1" connectable="0">
          <mxGeometry x="0.0581" y="1" relative="1" as="geometry">
            <mxPoint as="offset" />
          </mxGeometry>
        </mxCell>
        <mxCell id="gkKM9q-YfPjZsNWayiZE-10" value="" style="endArrow=classic;html=1;rounded=0;strokeWidth=2;exitX=0.5;exitY=1;exitDx=0;exitDy=0;entryX=0.5;entryY=0;entryDx=0;entryDy=0;" parent="1" source="gkKM9q-YfPjZsNWayiZE-4" target="gkKM9q-YfPjZsNWayiZE-5" edge="1">
          <mxGeometry width="50" height="50" relative="1" as="geometry">
            <mxPoint x="80" y="360" as="sourcePoint" />
            <mxPoint x="460" y="300" as="targetPoint" />
          </mxGeometry>
        </mxCell>
        <mxCell id="gkKM9q-YfPjZsNWayiZE-18" value="2 启动容器" style="edgeLabel;html=1;align=center;verticalAlign=middle;resizable=0;points=[];" parent="gkKM9q-YfPjZsNWayiZE-10" vertex="1" connectable="0">
          <mxGeometry x="-0.099" y="1" relative="1" as="geometry">
            <mxPoint as="offset" />
          </mxGeometry>
        </mxCell>
        <mxCell id="gkKM9q-YfPjZsNWayiZE-11" value="" style="endArrow=classic;html=1;rounded=0;strokeWidth=2;exitX=0.5;exitY=1;exitDx=0;exitDy=0;entryX=0.5;entryY=0;entryDx=0;entryDy=0;" parent="1" source="gkKM9q-YfPjZsNWayiZE-1" target="gkKM9q-YfPjZsNWayiZE-3" edge="1">
          <mxGeometry width="50" height="50" relative="1" as="geometry">
            <mxPoint x="90" y="370" as="sourcePoint" />
            <mxPoint x="140" y="320" as="targetPoint" />
          </mxGeometry>
        </mxCell>
        <mxCell id="gkKM9q-YfPjZsNWayiZE-19" value="5 启动被调试进程" style="edgeLabel;html=1;align=center;verticalAlign=middle;resizable=0;points=[];" parent="gkKM9q-YfPjZsNWayiZE-11" vertex="1" connectable="0">
          <mxGeometry x="-0.0594" y="-1" relative="1" as="geometry">
            <mxPoint as="offset" />
          </mxGeometry>
        </mxCell>
        <mxCell id="gkKM9q-YfPjZsNWayiZE-15" value="" style="endArrow=classic;html=1;rounded=0;strokeWidth=2;exitX=0;exitY=0.5;exitDx=0;exitDy=0;" parent="1" source="gkKM9q-YfPjZsNWayiZE-5" edge="1">
          <mxGeometry width="50" height="50" relative="1" as="geometry">
            <mxPoint x="130" y="410" as="sourcePoint" />
            <mxPoint x="370" y="280" as="targetPoint" />
          </mxGeometry>
        </mxCell>
        <mxCell id="gkKM9q-YfPjZsNWayiZE-17" value="3 启动容器" style="edgeLabel;html=1;align=center;verticalAlign=middle;resizable=0;points=[];" parent="gkKM9q-YfPjZsNWayiZE-15" vertex="1" connectable="0">
          <mxGeometry y="1" relative="1" as="geometry">
            <mxPoint as="offset" />
          </mxGeometry>
        </mxCell>
        <mxCell id="gkKM9q-YfPjZsNWayiZE-21" value="" style="curved=1;endArrow=classic;html=1;rounded=0;exitX=0.5;exitY=0;exitDx=0;exitDy=0;entryX=1;entryY=0.5;entryDx=0;entryDy=0;strokeWidth=2;" parent="1" source="gkKM9q-YfPjZsNWayiZE-4" target="gkKM9q-YfPjZsNWayiZE-4" edge="1">
          <mxGeometry width="50" height="50" relative="1" as="geometry">
            <mxPoint x="710" y="390" as="sourcePoint" />
            <mxPoint x="830" y="270" as="targetPoint" />
            <Array as="points">
              <mxPoint x="540" y="40" />
              <mxPoint x="590" y="40" />
              <mxPoint x="660" y="110" />
            </Array>
          </mxGeometry>
        </mxCell>
        <mxCell id="gkKM9q-YfPjZsNWayiZE-22" value="1 构建二进制" style="edgeLabel;html=1;align=center;verticalAlign=middle;resizable=0;points=[];" parent="gkKM9q-YfPjZsNWayiZE-21" vertex="1" connectable="0">
          <mxGeometry x="-0.0284" relative="1" as="geometry">
            <mxPoint y="1" as="offset" />
          </mxGeometry>
        </mxCell>
      </root>
    </mxGraphModel>
  </diagram>
</mxfile>
